<?xml version="1.0" encoding="utf-8"?>
<svg viewBox="0.171 0.201 512 512" xmlns="http://www.w3.org/2000/svg" xmlns:xlink="http://www.w3.org/1999/xlink">
  <defs>
    <filter height="1.088351" y="-0.044175496" width="1.0892536" x="-0.044626798" id="filter4350" style="color-interpolation-filters:sRGB">
      <feGaussianBlur id="feGaussianBlur4352" stdDeviation="8.7848425"/>
    </filter>
    <linearGradient y2="300.73987" x2="236.61363" y1="-161.8512" x1="-122.20192" spreadMethod="pad" gradientTransform="matrix(0.87385837,0,0,0.82818057,246.00762,250.28138)" gradientUnits="userSpaceOnUse" id="linearGradient4245" xlink:href="#linearGradient4284"/>
    <linearGradient id="linearGradient4284">
      <stop offset="0" style="stop-color:#8381c5;stop-opacity:1" id="stop4286"/>
      <stop id="stop4290" style="stop-color:#7e55b3;stop-opacity:0.99607843" offset="0.5664"/>
      <stop offset="1" style="stop-color:#a52ecb;stop-opacity:0.99215686" id="stop4288"/>
    </linearGradient>
    <linearGradient y2="66.018341" x2="173.94518" y1="396.6066" x1="447.80933" gradientTransform="matrix(0.98684959,0,0,0.98684959,3.0344187,2.5250397)" gradientUnits="userSpaceOnUse" id="linearGradient4247" xlink:href="#linearGradient4292"/>
    <linearGradient id="linearGradient4292">
      <stop id="stop4294" offset="0" style="stop-color:#411f5d;stop-opacity:1"/>
      <stop id="stop4296" offset="1" style="stop-color:#5b2a85;stop-opacity:1"/>
    </linearGradient>
    <linearGradient gradientTransform="translate(-6.0609153,1.0101525)" gradientUnits="userSpaceOnUse" id="linearGradient4600" spreadMethod="pad" x1="147.48227" x2="139.40105" y1="55.989796" y2="43.867966" xlink:href="#linearGradient4510"/>
    <linearGradient id="linearGradient4510">
      <stop id="stop4514" offset="0" style="stop-color:#e1e0df;stop-opacity:0.49803922;"/>
      <stop id="stop4536" offset="0" style="stop-color:#697c8b;stop-opacity:1;"/>
      <stop id="stop4602" offset="0" style="stop-color:#a5aeb5;stop-opacity:1;"/>
      <stop id="stop4534" offset="0" style="stop-color:#e1e0df;stop-opacity:1;"/>
      <stop id="stop4516" offset="1" style="stop-color:#e1e0df;stop-opacity:0;"/>
    </linearGradient>
    <linearGradient gradientTransform="translate(-6.0609153,1.0101525)" gradientUnits="userSpaceOnUse" id="linearGradient4596" spreadMethod="pad" x1="188.89853" x2="140.41121" y1="247.91878" y2="173.1675" xlink:href="#linearGradient4510"/>
  </defs>
  <path style="opacity:0.40500004;fill:#211f46;fill-opacity:0.99607843;stroke:#0a0b1b;stroke-width:8.53333378;stroke-miterlimit:4;stroke-dasharray:none;stroke-opacity:1;filter:url(#filter4350)" id="path4233" d="m 491.66937,257.75916 c 0,131.79436 -105.76,238.63481 -236.22155,238.63481 -130.46155,0 -236.221539,-106.84045 -236.221539,-238.63481 0,-131.79437 105.759989,-238.634808 236.221539,-238.634808 130.46155,0 236.22155,106.840438 236.22155,238.634808 z" transform="matrix(0.98685, 0, 0, 0.98685, 3.034404, 2.52504)"/>
  <path d="m 488.23812,256.89456 c 0,130.06121 -104.3692,235.49665 -233.1151,235.49665 -128.7459,0 -233.115201,-105.43544 -233.115201,-235.49665 0,-130.06123 104.369301,-235.49666 233.115201,-235.49666 128.7459,0 233.1151,105.43543 233.1151,235.49666 z" id="path4235" style="opacity:1;fill:url(#linearGradient4245);fill-opacity:1;stroke:url(#linearGradient4247);stroke-width:13.33816814;stroke-miterlimit:4;stroke-dasharray:none;stroke-opacity:1"/>
  <g id="layer1" transform="matrix(0.436231, 0, 0, 0.436231, 348.618835, 214.679504)" style="">
    <g id="g3645">
      <path style="fill:#f3f3f3;fill-opacity:1;fill-rule:nonzero;stroke:#939494;stroke-width:1px;stroke-linecap:butt;stroke-linejoin:miter;stroke-opacity:1" id="path3975" d="M 226.79135,189.08626 C 227.80358,185.16927 226.7883,183.78662 225.08965,183.25819 C 216.14673,177.74046 210.1841,171.54315 203.86599,162.37813 C 198.77841,151.73365 196.05782,148.41581 196.42386,133.4132 C 196.08202,126.18293 196.97833,118.95267 200.03904,111.7224 C 203.64412,104.30381 206.94096,98.059984 213.73286,93.734449 L 220.24018,87.950235 C 221.81237,86.764393 221.81052,84.408095 221.00707,82.80133 C 215.33474,76.938527 210.75035,70.920308 200.5503,65.704316 C 196.41797,63.311784 190.18099,61.460321 181.96315,61.110526 C 176.1616,61.113166 170.53309,60.942777 163.41986,62.257091 C 157.72078,63.185008 151.76608,65.118958 146.067,68.041306 L 137.85798,71.955928 C 132.65144,73.230874 127.92487,72.585946 123.39727,71.145182 L 108.21352,64.72566 C 102.92915,62.779692 96.743365,61.735146 89.414599,61.833552 C 82.179889,61.811781 75.0102,62.115112 68.446568,65.448687 C 63.243309,67.957777 58.509779,70.936588 53.985856,74.125008 C 48.624113,79.126713 43.535059,84.401106 39.525145,90.754625 C 36.436445,94.744128 34.248635,101.18064 31.827385,107.17247 C 29.616529,113.16975 28.604534,117.60888 27.700944,123.0352 C 26.118101,133.52725 26.307028,139.89827 26.678417,147.87374 C 27.459233,161.52735 29.412896,166.49468 30.848718,174.62573 C 32.57736,181.53187 34.960933,187.12817 37.356038,192.7014 C 39.789469,199.43799 43.73769,205.4172 47.478536,211.50009 C 50.770224,217.81917 55.914273,224.75569 61.216212,231.74484 C 65.79814,236.80739 67.922116,240.64096 76.65559,246.88456 C 82.512633,250.5432 83.377833,251.2551 86.522457,252.71263 C 89.417155,253.4331 92.410619,254.05479 96.644955,253.43565 C 99.397485,252.85223 101.97985,252.43898 106.04441,250.54354 C 108.93655,249.33849 111.8287,248.13346 114.72084,246.92841 C 117.95444,245.48235 121.12382,244.0363 127.01244,242.59025 C 130.86864,242.08417 134.72482,241.69836 138.58102,241.86722 C 141.00515,241.82743 145.04028,242.75422 150.87261,244.75932 C 154.49875,245.97167 156.48606,246.09148 163.88726,249.82051 C 167.02749,250.84067 169.02988,252.6194 174.00976,252.41314 C 178.79498,251.75492 183.31517,250.06479 186.76876,248.07498 C 190.58363,245.28272 195.08066,243.17262 197.65816,239.14303 C 200.77099,236.2404 202.59999,233.97969 204.37725,231.74484 L 213.05367,218.73037 C 215.83469,215.41886 218.35181,211.57957 220.45194,206.90631 C 222.98613,201.38734 224.9295,195.27755 226.79135,189.08626 z"/>
      <path style="fill:#f9f9f9;fill-opacity:1;fill-rule:nonzero;stroke:#939494;stroke-width:1px;stroke-linecap:butt;stroke-linejoin:miter;stroke-opacity:1" id="path4486" d="M 126.62899,57.623206 C 126.70519,60.512968 128.52419,59.649994 129.54306,60.025985 C 133.37626,60.460634 135.25637,59.430484 137.85798,58.941445 C 142.89025,57.499014 144.83081,56.443041 147.25744,55.32631 C 150.02908,53.677375 152.80071,52.488445 155.57235,49.90361 C 158.1866,48.003414 159.84541,46.381209 162.07967,43.757883 C 165.03594,40.720352 166.02579,39.285406 168.22547,36.166101 C 170.67214,32.599106 171.84065,30.225228 173.64824,26.40524 C 174.86037,23.335916 176.32254,20.391601 176.9019,17.00589 C 177.54181,13.951721 178.35268,10.983022 178.34797,7.6065432 C 178.55126,5.9571962 178.08673,4.9756749 177.62493,3.9914092 C 175.79865,2.9137576 174.85777,2.9491678 172.7316,3.1004718 C 170.24254,3.1111173 167.05612,3.4939366 163.52574,5.0759494 C 159.63758,6.8622085 155.91818,8.7609624 153.04172,11.221677 C 149.96874,13.149749 147.88543,15.07782 145.81137,17.00589 C 143.29274,19.307468 141.13138,21.966321 138.94253,24.597672 C 136.45165,27.570221 134.50785,30.150375 133.37002,32.784667 C 131.83427,35.719378 130.76752,38.654089 129.54306,41.588802 C 128.24309,44.720723 127.24745,48.004808 126.62899,51.477477 C 126.27245,53.644897 126.36496,55.151381 126.62899,57.623206 z"/>
      <path style="fill:url(#linearGradient4600);fill-opacity:1;fill-rule:nonzero;stroke:#939494;stroke-width:1px;stroke-linecap:butt;stroke-linejoin:miter;stroke-opacity:1" id="path4598" d="M 126.62899,57.623206 C 126.70519,60.512968 128.52419,59.649994 129.54306,60.025985 C 133.37626,60.460634 135.25637,59.430484 137.85798,58.941445 C 142.89025,57.499014 144.83081,56.443041 147.25744,55.32631 C 150.02908,53.677375 152.80071,52.488445 155.57235,49.90361 C 158.1866,48.003414 159.84541,46.381209 162.07967,43.757883 C 165.03594,40.720352 166.02579,39.285406 168.22547,36.166101 C 170.67214,32.599106 171.84065,30.225228 173.64824,26.40524 C 174.86037,23.335916 176.32254,20.391601 176.9019,17.00589 C 177.54181,13.951721 178.35268,10.983022 178.34797,7.6065432 C 178.55126,5.9571962 178.08673,4.9756749 177.62493,3.9914092 C 175.79865,2.9137576 174.85777,2.9491678 172.7316,3.1004718 C 170.24254,3.1111173 167.05612,3.4939366 163.52574,5.0759494 C 159.63758,6.8622085 155.91818,8.7609624 153.04172,11.221677 C 149.96874,13.149749 147.88543,15.07782 145.81137,17.00589 C 143.29274,19.307468 141.13138,21.966321 138.94253,24.597672 C 136.45165,27.570221 134.50785,30.150375 133.37002,32.784667 C 131.83427,35.719378 130.76752,38.654089 129.54306,41.588802 C 128.24309,44.720723 127.24745,48.004808 126.62899,51.477477 C 126.27245,53.644897 126.36496,55.151381 126.62899,57.623206 z"/>
      <path style="fill:url(#linearGradient4596);fill-opacity:1;fill-rule:nonzero;stroke:#939494;stroke-width:1px;stroke-linecap:butt;stroke-linejoin:miter;stroke-opacity:1" id="path2408" d="M 226.79135,189.08626 C 227.80358,185.16927 226.7883,183.78662 225.08965,183.25819 C 216.14673,177.74046 210.1841,171.54315 203.86599,162.37813 C 198.77841,151.73365 196.05782,148.41581 196.42386,133.4132 C 196.08202,126.18293 196.97833,118.95267 200.03904,111.7224 C 203.64412,104.30381 206.94096,98.059984 213.73286,93.734449 L 220.24018,87.950235 C 221.81237,86.764393 221.81052,84.408095 221.00707,82.80133 C 215.33474,76.938527 210.75035,70.920308 200.5503,65.704316 C 196.41797,63.311784 190.18099,61.460321 181.96315,61.110526 C 176.1616,61.113166 170.53309,60.942777 163.41986,62.257091 C 157.72078,63.185008 151.76608,65.118958 146.067,68.041306 L 137.85798,71.955928 C 132.65144,73.230874 127.92487,72.585946 123.39727,71.145182 L 108.21352,64.72566 C 102.92915,62.779692 96.743365,61.735146 89.414599,61.833552 C 82.179889,61.811781 75.0102,62.115112 68.446568,65.448687 C 63.243309,67.957777 58.509779,70.936588 53.985856,74.125008 C 48.624113,79.126713 43.535059,84.401106 39.525145,90.754625 C 36.436445,94.744128 34.248635,101.18064 31.827385,107.17247 C 29.616529,113.16975 28.604534,117.60888 27.700944,123.0352 C 26.118101,133.52725 26.307028,139.89827 26.678417,147.87374 C 27.459233,161.52735 29.412896,166.49468 30.848718,174.62573 C 32.57736,181.53187 34.960933,187.12817 37.356038,192.7014 C 39.789469,199.43799 43.73769,205.4172 47.478536,211.50009 C 50.770224,217.81917 55.914273,224.75569 61.216212,231.74484 C 65.79814,236.80739 67.922116,240.64096 76.65559,246.88456 C 82.512633,250.5432 83.377833,251.2551 86.522457,252.71263 C 89.417155,253.4331 92.410619,254.05479 96.644955,253.43565 C 99.397485,252.85223 101.97985,252.43898 106.04441,250.54354 C 108.93655,249.33849 111.8287,248.13346 114.72084,246.92841 C 117.95444,245.48235 121.12382,244.0363 127.01244,242.59025 C 130.86864,242.08417 134.72482,241.69836 138.58102,241.86722 C 141.00515,241.82743 145.04028,242.75422 150.87261,244.75932 C 154.49875,245.97167 156.48606,246.09148 163.88726,249.82051 C 167.02749,250.84067 169.02988,252.6194 174.00976,252.41314 C 178.79498,251.75492 183.31517,250.06479 186.76876,248.07498 C 190.58363,245.28272 195.08066,243.17262 197.65816,239.14303 C 200.77099,236.2404 202.59999,233.97969 204.37725,231.74484 L 213.05367,218.73037 C 215.83469,215.41886 218.35181,211.57957 220.45194,206.90631 C 222.98613,201.38734 224.9295,195.27755 226.79135,189.08626 z"/>
      <path style="fill:url(#linearGradient4600);fill-opacity:1;fill-rule:nonzero;stroke:#939494;stroke-width:1px;stroke-linecap:butt;stroke-linejoin:miter;stroke-opacity:1" id="path3180" d="M 126.62899,57.623206 C 126.70519,60.512968 128.52419,59.649994 129.54306,60.025985 C 133.37626,60.460634 135.25637,59.430484 137.85798,58.941445 C 142.89025,57.499014 144.83081,56.443041 147.25744,55.32631 C 150.02908,53.677375 152.80071,52.488445 155.57235,49.90361 C 158.1866,48.003414 159.84541,46.381209 162.07967,43.757883 C 165.03594,40.720352 166.02579,39.285406 168.22547,36.166101 C 170.67214,32.599106 171.84065,30.225228 173.64824,26.40524 C 174.86037,23.335916 176.32254,20.391601 176.9019,17.00589 C 177.54181,13.951721 178.35268,10.983022 178.34797,7.6065432 C 178.55126,5.9571962 178.08673,4.9756749 177.62493,3.9914092 C 175.79865,2.9137576 174.85777,2.9491678 172.7316,3.1004718 C 170.24254,3.1111173 167.05612,3.4939366 163.52574,5.0759494 C 159.63758,6.8622085 155.91818,8.7609624 153.04172,11.221677 C 149.96874,13.149749 147.88543,15.07782 145.81137,17.00589 C 143.29274,19.307468 141.13138,21.966321 138.94253,24.597672 C 136.45165,27.570221 134.50785,30.150375 133.37002,32.784667 C 131.83427,35.719378 130.76752,38.654089 129.54306,41.588802 C 128.24309,44.720723 127.24745,48.004808 126.62899,51.477477 C 126.27245,53.644897 126.36496,55.151381 126.62899,57.623206 z"/>
    </g>
  </g>
  <path d="m 175.0003,422.31057 c 0,0 19.7385,1.39634 45.1312,-0.84159 10.2834,-0.9063 49.3267,-4.74128 78.5169,-11.14289 0,0 35.5899,-7.61669 54.6301,-14.63335 19.9225,-7.34185 30.7636,-13.57304 35.6433,-22.40243 -0.2128,-1.80907 1.5024,-8.22438 -7.685,-12.07788 -23.4887,-9.85199 -50.73,-8.06998 -104.6338,-9.21285 -59.7772,-2.05391 -79.6627,-12.05971 -90.2556,-20.11838 -10.1579,-8.17519 -5.05,-30.79254 38.4742,-50.71499 21.9244,-10.60898 107.8705,-30.18698 107.8705,-30.18698 -28.9451,-14.30725 -82.9186,-39.45893 -94.0134,-44.89023 -9.7308,-4.76348 -25.303,-11.93595 -28.6785,-20.61368 -3.8271,-8.33089 9.0383,-15.50726 16.2248,-17.56236 23.1448,-6.67602 55.8182,-10.82538 85.5548,-11.29122 14.9472,-0.23417 17.3734,-1.19586 17.3734,-1.19586 20.6243,-3.42116 34.2014,-17.53175 28.5446,-39.87876 -5.0783,-22.81046 -31.8617,-36.21365 -57.3138,-31.57361 -23.9682,4.36956 -81.7378,21.15007 -81.7378,21.15007 71.4075,-0.61803 83.3592,0.57378 88.697,8.03676 3.1523,4.40742 -1.4324,10.45068 -20.4765,13.56099 -20.733,3.38616 -63.8312,7.46399 -63.8312,7.46399 -41.3449,2.4554 -70.4682,2.61974 -79.203,21.11314 -5.7065,12.08196 6.0854,22.7633 11.2538,29.4493 21.8407,24.28905 53.3882,37.38879 73.6948,47.03553 7.6405,3.62963 30.0586,10.48407 30.0586,10.48407 -65.8782,-3.62335 -113.4003,16.6055 -141.2764,39.89622 -31.5288,29.16261 -17.581403,63.92354 47.0124,85.3268 38.1517,12.6416 57.0725,18.58695 113.9815,13.46232 33.52,-1.80673 38.8041,-0.73155 39.1383,2.01892 0.4705,3.87242 -37.2311,13.49165 -47.524,16.4606 -26.1853,7.55306 -94.8276,22.80438 -95.1712,22.87835 z" id="path4237" style="fill:#ffffff;fill-opacity:1;fill-rule:evenodd;stroke:#000000;stroke-width:0;stroke-linecap:butt;stroke-linejoin:miter;stroke-miterlimit:4;stroke-dasharray:none;stroke-opacity:1"/>
</svg>